<svg xmlns="http://www.w3.org/2000/svg" width="20" height="20" viewBox="0 0 20 20" fill="none">
<path d="M14.9625 15.1998H5.03335C3.19169 15.1998 1.69169 13.7243 1.66669 12.2529V12.8448C1.66669 14.3161 3.17502 15.8333 5.03335 15.8333H14.9667C16.825 15.8333 18.3334 14.3161 18.3334 12.8448V12.2154C18.3334 13.6951 16.825 15.1956 14.9625 15.1956V15.1998Z" fill="#9D5125"/>
<path d="M15.3459 8.65581C15.3125 7.81384 14.8584 7.05941 14.1584 6.68011C13.4542 6.30081 12.6167 6.36333 11.9667 6.8385C11.275 5.20875 9.75419 4.16671 8.08335 4.16671C6.95835 4.16255 5.87502 4.63771 5.07919 5.48385C4.27919 6.33415 3.82919 7.48456 3.82502 8.68915V8.81837C2.56252 9.21017 1.66669 10.7774 1.66669 11.9195V12.2154C1.66669 12.2154 1.66669 12.2404 1.66669 12.2529C1.69169 13.7201 3.18752 15.1998 5.03335 15.1998H14.9584C16.8209 15.1998 18.3292 13.6993 18.3292 12.2196V11.9195C18.3292 10.544 17.0209 8.81003 15.3417 8.65998L15.3459 8.65581ZM7.01669 13.6242L6.77919 12.6114H5.63335L5.38335 13.6242H4.72919L5.84169 9.46026H6.64169L7.66669 13.6242H7.01252H7.01669ZM10.1 13.6242L9.59585 10.4856H9.58335L9.08335 13.6242H8.35835L7.60419 9.46026H8.23752L8.75002 12.6947H8.76252L9.27919 9.46026H9.93752L10.4667 12.7114H10.475L10.9875 9.46026H11.6084L10.8292 13.6242H10.1042H10.1ZM14.4042 12.4488C14.4042 13.3366 13.9 13.7034 13.1084 13.7034C12.1459 13.7034 11.925 13.0199 11.925 12.4363V12.3363H12.55V12.4447C12.55 12.949 12.7584 13.2033 13.1917 13.2033C13.35 13.2158 13.5 13.1574 13.6167 13.0407C13.7292 12.924 13.7917 12.7614 13.7875 12.5947C13.8084 12.2321 13.5625 11.9111 13.225 11.8611L12.7959 11.7027C12.2167 11.4693 11.9792 11.1567 11.9792 10.5607C11.9792 9.80205 12.4625 9.38107 13.1959 9.38107C14.2 9.38107 14.3042 10.048 14.3042 10.4773V10.569H13.6792V10.4815C13.7042 10.3189 13.6542 10.1522 13.5459 10.0313C13.4375 9.91042 13.2834 9.85623 13.1292 9.87707C12.9792 9.86874 12.8375 9.93126 12.7334 10.0438C12.6292 10.1605 12.5834 10.3189 12.6042 10.4773C12.6042 10.8357 12.7792 11.0233 13.1917 11.1817L13.6167 11.3443C14.1709 11.5527 14.4125 11.8736 14.4084 12.4447L14.4042 12.4488ZM6.66669 12.0654H5.74585L6.22085 10.0105L6.67085 12.0654H6.66669Z" fill="#F58535"/>
<path d="M14.4041 12.4487C14.4041 13.3366 13.9 13.7033 13.1083 13.7033C12.1458 13.7033 11.925 13.0198 11.925 12.4362V12.3362H12.55V12.4446C12.55 12.9489 12.7583 13.2032 13.1916 13.2032C13.35 13.2157 13.5 13.1573 13.6166 13.0406C13.7291 12.9239 13.7916 12.7613 13.7875 12.5946C13.8083 12.232 13.5625 11.911 13.225 11.861L12.7958 11.7026C12.2166 11.4692 11.9791 11.1566 11.9791 10.5606C11.9791 9.80196 12.4625 9.38098 13.1958 9.38098C14.2 9.38098 14.3041 10.0479 14.3041 10.4772V10.5689H13.6791V10.4814C13.7041 10.3188 13.6541 10.1521 13.5458 10.0312C13.4375 9.91034 13.2833 9.85615 13.1291 9.87699C12.9791 9.86865 12.8375 9.93118 12.7333 10.0437C12.6291 10.1604 12.5833 10.3188 12.6041 10.4772C12.6041 10.8357 12.7791 11.0232 13.1916 11.1816L13.6166 11.3442C14.1708 11.5526 14.4125 11.8735 14.4083 12.4446L14.4041 12.4487ZM7.66664 13.6242H7.01248L6.77498 12.6113H5.62914L5.37914 13.6242H4.72498L5.83748 9.46018H6.63748L7.66248 13.6242H7.66664ZM6.66248 12.0653L6.21248 10.0104L5.73748 12.0694H6.65831L6.66248 12.0653ZM11.6 9.45601H10.9791L10.4666 12.7072H10.4583L9.92914 9.45601H9.27081L8.75414 12.6905H8.74164L8.22914 9.45601H7.59581L8.34998 13.62H9.07498L9.57498 10.4814H9.58748L10.0916 13.62H10.8166L11.5958 9.45601H11.6Z" fill="white"/>
</svg>
