<svg xmlns="http://www.w3.org/2000/svg" width="20" height="20" viewBox="0 0 20 20" fill="none">
<path d="M14.3635 16.25H17.1419C17.8001 16.25 18.3333 15.725 18.3333 15.0792V6.95416L14.3676 9.88333V16.25H14.3635Z" fill="#4CAF50"/>
<path d="M1.66669 15.0792C1.66669 15.725 2.19989 16.25 2.85806 16.25H5.63653V9.88333L1.66669 6.95416V15.0792Z" fill="#1E88E5"/>
<path d="M9.9979 8.22083L5.63232 5V9.88333L9.9979 13.1042L14.3635 9.88333V5L9.9979 8.22083Z" fill="#E53935"/>
<path d="M4.39517 4.0875C4.09941 3.87083 3.74117 3.75 3.37043 3.75C2.429 3.75 1.66669 4.5 1.66669 5.42917V6.95417L5.63236 9.88333V5L4.39517 4.0875Z" fill="#C62828"/>
<path d="M16.6254 3.75C16.2547 3.75 15.8964 3.86667 15.6007 4.0875L14.3593 5V9.88333L18.325 6.95417V5.42917C18.325 4.5 17.5627 3.75 16.6213 3.75H16.6254Z" fill="#FBC02D"/>
</svg>
