<svg xmlns="http://www.w3.org/2000/svg" width="20" height="20" viewBox="0 0 20 20" fill="none">
<path d="M7.29169 7.40415L7.30835 7.38748C8.59585 5.97914 10.775 5.78748 12.2667 6.98748L14.3 4.96248C11.6542 2.57498 7.45835 2.84581 5.07919 5.52915C4.41669 6.27498 3.92919 7.20415 3.66669 8.16248C4.42502 7.63331 5.34585 7.31665 6.34169 7.31248C6.66252 7.31248 6.97919 7.34165 7.28752 7.40415H7.29169Z" fill="#EA4335"/>
<path d="M16.2625 8.12086C15.9292 6.90002 15.2459 5.80419 14.2959 4.96252L12.2625 6.98752C13.1209 7.68752 13.6084 8.73752 13.5875 9.84169V10.2C14.5875 10.2 15.3959 11.0084 15.3959 12C15.3959 12.9917 14.5875 13.7792 13.5875 13.7792H9.96252V16.6625H13.5875C16.1875 16.6834 18.3125 14.6209 18.3292 12.0334C18.3417 10.4667 17.5625 8.99586 16.2584 8.11669L16.2625 8.12086Z" fill="#4285F4"/>
<path d="M9.96665 13.7833H6.34582C6.08748 13.7833 5.83748 13.7292 5.60415 13.6208L3.50415 15.7083C4.32082 16.325 5.32082 16.6708 6.34582 16.6625H9.96665V13.7792V13.7833Z" fill="#34A853"/>
<path d="M5.60419 13.6208C4.69169 13.2125 4.28752 12.1458 4.70002 11.2375C5.11252 10.3292 6.18336 9.92917 7.09586 10.3375C7.49586 10.5167 7.81669 10.8375 8.00002 11.2375L10.1 9.15C9.40002 8.24167 8.40002 7.62917 7.29169 7.40417C6.98336 7.34167 6.66669 7.3125 6.34586 7.3125C5.35002 7.31667 4.42502 7.63333 3.67086 8.1625C2.45002 9.01667 1.65836 10.4292 1.66669 12.025C1.67502 13.4708 2.35419 14.8292 3.50419 15.7083L5.60419 13.6208Z" fill="#FBBC05"/>
</svg>
