<svg xmlns="http://www.w3.org/2000/svg" width="20" height="20" viewBox="0 0 20 20" fill="none">
<path d="M12.8786 4.94131C12.8786 6.28961 11.7933 7.38262 10.4544 7.38262C10.3518 7.38262 10.2507 7.3762 10.1515 7.36374V6.56873C10.1515 6.17553 9.83495 5.85678 9.4445 5.85678H8.20636C8.09272 5.57407 8.03015 5.26505 8.03015 4.94131C8.03015 3.59301 9.11552 2.5 10.4544 2.5C11.7933 2.5 12.8786 3.59301 12.8786 4.94131Z" fill="#7B83EB"/>
<path d="M6.67847 14.4014H9.4445C9.83495 14.4014 10.1515 14.0826 10.1515 13.6894V8.29809H14.2931C14.3855 8.29757 14.477 8.31537 14.5625 8.35049C14.6481 8.38561 14.7259 8.43734 14.7915 8.50275C14.8572 8.56816 14.9094 8.64595 14.9452 8.73168C14.981 8.81741 14.9996 8.90941 15.0001 9.00241V13.2277C15.0001 14.3608 14.5531 15.4475 13.7575 16.2487C12.9619 17.0499 11.8828 17.5 10.7577 17.5C9.63252 17.5 8.55344 17.0499 7.75783 16.2487C7.24346 15.7307 6.87482 15.0934 6.67847 14.4014Z" fill="#7B83EB"/>
<path d="M14.5982 15.0428C14.9519 15.2214 15.3452 15.3169 15.7484 15.3169H15.7671C16.4477 15.3169 17.1004 15.0446 17.5817 14.56C18.063 14.0754 18.3334 13.4181 18.3335 12.7327V9.0006C18.3335 8.81429 18.26 8.6356 18.1292 8.50386C17.9984 8.37212 17.8209 8.29811 17.6359 8.29811H14.3018C14.3912 8.29871 14.4797 8.31649 14.5626 8.35051C14.6481 8.38562 14.7259 8.43736 14.7915 8.50277C14.8572 8.56817 14.9094 8.64596 14.9452 8.7317C14.981 8.81743 14.9996 8.90942 15.0001 9.00242V13.2277C15.0001 13.8612 14.8604 14.4801 14.5982 15.0428Z" fill="#5059C9"/>
<path d="M17.4243 5.70422C17.4243 6.63117 16.6781 7.38262 15.7577 7.38262C14.8372 7.38262 14.091 6.63117 14.091 5.70422C14.091 4.77726 14.8372 4.02582 15.7577 4.02582C16.6781 4.02582 17.4243 4.77726 17.4243 5.70422Z" fill="#5059C9"/>
<path fill-rule="evenodd" clip-rule="evenodd" d="M2.37366 5.85681H9.44457C9.83501 5.85681 10.1515 6.17556 10.1515 6.56876V13.6894C10.1515 14.0826 9.83501 14.4014 9.44457 14.4014H2.37366C1.98321 14.4014 1.66669 14.0826 1.66669 13.6894V6.56876C1.66669 6.17556 1.98321 5.85681 2.37366 5.85681ZM6.34674 8.45924H7.72977V7.68779H4.08856V8.45924H5.46523V12.4349H6.34674V8.45924Z" fill="#4B53BC"/>
</svg>
