<svg xmlns="http://www.w3.org/2000/svg" width="20" height="20" viewBox="0 0 20 20" fill="none">
<path d="M5.16832 12.1987C5.16832 13.1623 4.38113 13.9495 3.4175 13.9495C2.45387 13.9495 1.66669 13.1623 1.66669 12.1987C1.66669 11.2351 2.45387 10.4479 3.4175 10.4479H5.16832V12.1987Z" fill="#E01E5A"/>
<path d="M6.05051 12.1987C6.05051 11.2351 6.8377 10.4479 7.80132 10.4479C8.76495 10.4479 9.55214 11.2351 9.55214 12.1987V16.5825C9.55214 17.5461 8.76495 18.3333 7.80132 18.3333C6.8377 18.3333 6.05051 17.5461 6.05051 16.5825V12.1987Z" fill="#E01E5A"/>
<path d="M7.80132 5.16832C6.8377 5.16832 6.05051 4.38113 6.05051 3.4175C6.05051 2.45387 6.8377 1.66669 7.80132 1.66669C8.76495 1.66669 9.55214 2.45387 9.55214 3.4175V5.16832H7.80132Z" fill="#36C5F0"/>
<path d="M7.80132 6.05051C8.76495 6.05051 9.55214 6.8377 9.55214 7.80132C9.55214 8.76495 8.76495 9.55214 7.80132 9.55214H3.4175C2.45387 9.55214 1.66669 8.76495 1.66669 7.80132C1.66669 6.8377 2.45387 6.05051 3.4175 6.05051H7.80132Z" fill="#36C5F0"/>
<path d="M14.8319 7.80133C14.8319 6.8377 15.6191 6.05051 16.5828 6.05051C17.5464 6.05051 18.3336 6.8377 18.3336 7.80133C18.3336 8.76495 17.5464 9.55214 16.5828 9.55214H14.8319V7.80133Z" fill="#2EB67D"/>
<path d="M13.9496 7.80132C13.9496 8.76495 13.1624 9.55214 12.1988 9.55214C11.2352 9.55214 10.448 8.76495 10.448 7.80132V3.4175C10.448 2.45387 11.2352 1.66669 12.1988 1.66669C13.1624 1.66669 13.9496 2.45387 13.9496 3.4175V7.80132Z" fill="#2EB67D"/>
<path d="M12.1988 14.8317C13.1624 14.8317 13.9496 15.6189 13.9496 16.5825C13.9496 17.5461 13.1624 18.3333 12.1988 18.3333C11.2352 18.3333 10.448 17.5461 10.448 16.5825V14.8317H12.1988Z" fill="#ECB22E"/>
<path d="M12.1988 13.9495C11.2352 13.9495 10.448 13.1623 10.448 12.1987C10.448 11.2351 11.2352 10.4479 12.1988 10.4479H16.5826C17.5463 10.4479 18.3334 11.2351 18.3334 12.1987C18.3334 13.1623 17.5463 13.9495 16.5826 13.9495H12.1988Z" fill="#ECB22E"/>
</svg>
